<svg width="14" height="14" viewBox="0 0 14 14" fill="none" xmlns="http://www.w3.org/2000/svg">
<path d="M6.56283 7.49541V9.39126C6.56283 9.51541 6.6047 9.61936 6.68846 9.70311C6.77222 9.78687 6.87617 9.82875 7.00031 9.82875C7.12445 9.82875 7.2284 9.78687 7.31216 9.70311C7.39592 9.61936 7.4378 9.51541 7.4378 9.39126V7.49541H9.33365C9.45779 7.49541 9.56174 7.45354 9.64549 7.36978C9.72925 7.28602 9.77113 7.18207 9.77113 7.05793C9.77113 6.93379 9.72925 6.82984 9.64549 6.74608C9.56174 6.66232 9.45779 6.62044 9.33365 6.62044H7.4378V4.7246C7.4378 4.60045 7.39592 4.4965 7.31216 4.41275C7.2284 4.32899 7.12445 4.28711 7.00031 4.28711C6.87617 4.28711 6.77222 4.32899 6.68846 4.41275C6.6047 4.4965 6.56283 4.60045 6.56283 4.7246V6.62044H4.66698C4.54283 6.62044 4.43888 6.66232 4.35513 6.74608C4.27137 6.82984 4.22949 6.93379 4.22949 7.05793C4.22949 7.18207 4.27137 7.28602 4.35513 7.36978C4.43888 7.45354 4.54283 7.49541 4.66698 7.49541H6.56283ZM3.09648 12.0162C2.80182 12.0162 2.55241 11.9142 2.34824 11.71C2.14408 11.5058 2.04199 11.2564 2.04199 10.9618V3.1541C2.04199 2.85944 2.14408 2.61003 2.34824 2.40586C2.55241 2.20169 2.80182 2.09961 3.09648 2.09961H10.9041C11.1988 2.09961 11.4482 2.20169 11.6524 2.40586C11.8565 2.61003 11.9586 2.85944 11.9586 3.1541V10.9618C11.9586 11.2564 11.8565 11.5058 11.6524 11.71C11.4482 11.9142 11.1988 12.0162 10.9041 12.0162H3.09648ZM3.09648 11.1413H10.9041C10.949 11.1413 10.9902 11.1226 11.0276 11.0852C11.0649 11.0478 11.0836 11.0066 11.0836 10.9618V3.1541C11.0836 3.10922 11.0649 3.06808 11.0276 3.03068C10.9902 2.99329 10.949 2.9746 10.9041 2.9746H3.09648C3.05161 2.9746 3.01047 2.99329 2.97307 3.03068C2.93567 3.06808 2.91698 3.10922 2.91698 3.1541V10.9618C2.91698 11.0066 2.93567 11.0478 2.97307 11.0852C3.01047 11.1226 3.05161 11.1413 3.09648 11.1413Z" fill="white"/>
</svg>
