<svg width="30" height="30" viewBox="0 0 30 30" fill="none" xmlns="http://www.w3.org/2000/svg">
<circle cx="15" cy="15" r="15" fill="#7AC555"/>
<path d="M12.5497 18.15L21.0247 9.675C21.2247 9.475 21.4622 9.375 21.7372 9.375C22.0122 9.375 22.2497 9.475 22.4497 9.675C22.6497 9.875 22.7497 10.1125 22.7497 10.3875C22.7497 10.6625 22.6497 10.9 22.4497 11.1L13.2497 20.3C13.0497 20.5 12.8164 20.6 12.5497 20.6C12.2831 20.6 12.0497 20.5 11.8497 20.3L7.54972 16C7.34972 15.8 7.25389 15.5625 7.26222 15.2875C7.27055 15.0125 7.37472 14.775 7.57472 14.575C7.77472 14.375 8.01222 14.275 8.28722 14.275C8.56222 14.275 8.79972 14.375 8.99972 14.575L12.5497 18.15Z" fill="white"/>
</svg>
