<svg width="20" height="20" viewBox="0 0 20 20" fill="none" xmlns="http://www.w3.org/2000/svg">
<rect width="20" height="20" rx="4" fill="#EEEEEE"/>
<path d="M10.0176 14.1172C8.25977 14.1172 7.01172 13.1738 6.95898 11.7852H8.27148C8.31836 12.5293 9.05664 13.0039 10.0059 13.0039C11.0312 13.0039 11.7754 12.4473 11.7754 11.6211C11.7754 10.7832 11.0781 10.1855 9.86523 10.1797H9.13867V9.125H9.86523C10.832 9.13086 11.5059 8.5918 11.5059 7.77734C11.5059 7.00391 10.9258 6.47656 10.0293 6.47656C9.17969 6.47656 8.41797 6.95117 8.38867 7.71875H7.14648C7.18164 6.33594 8.45898 5.39844 10.041 5.39844C11.7109 5.39844 12.7598 6.45312 12.748 7.70703C12.7598 8.67383 12.1621 9.36523 11.248 9.59375V9.65234C12.4082 9.81641 13.082 10.5957 13.0762 11.668C13.082 13.0801 11.7754 14.1172 10.0176 14.1172Z" fill="#787486"/>
</svg>
