<svg width="60" height="22" viewBox="0 0 60 22" fill="none" xmlns="http://www.w3.org/2000/svg">
<rect width="60" height="22" rx="11" fill="#F1EFFD"/>
<circle cx="11" cy="11" r="3" fill="#5534DA"/>
<path d="M20.8359 7.45312V6.51562H27.2344V7.45312H24.5742V15H23.5078V7.45312H20.8359ZM30.1875 15.1289C28.4531 15.1348 27.2812 13.8223 27.2812 11.8477C27.2812 9.86133 28.4531 8.55469 30.1875 8.55469C31.916 8.55469 33.0762 9.86133 33.0703 11.8477C33.0762 13.8223 31.916 15.1348 30.1875 15.1289ZM28.2891 11.8477C28.2949 13.1191 28.8926 14.2383 30.1875 14.2383C31.4707 14.2383 32.0625 13.1191 32.0625 11.8477C32.0625 10.582 31.4707 9.44531 30.1875 9.44531C28.8926 9.44531 28.2949 10.582 28.2891 11.8477ZM40.1719 15H37.5352V6.51562H40.2773C42.7559 6.51562 44.2148 8.10352 44.2148 10.7461C44.2148 13.3945 42.7559 15 40.1719 15ZM38.5898 14.0625H40.1016C42.1816 14.0625 43.1836 12.8027 43.1836 10.7461C43.1836 8.69531 42.1816 7.45312 40.207 7.45312H38.5898V14.0625ZM48.2344 15.1289C46.5 15.1348 45.3281 13.8223 45.3281 11.8477C45.3281 9.86133 46.5 8.55469 48.2344 8.55469C49.9629 8.55469 51.123 9.86133 51.1172 11.8477C51.123 13.8223 49.9629 15.1348 48.2344 15.1289ZM46.3359 11.8477C46.3418 13.1191 46.9395 14.2383 48.2344 14.2383C49.5176 14.2383 50.1094 13.1191 50.1094 11.8477C50.1094 10.582 49.5176 9.44531 48.2344 9.44531C46.9395 9.44531 46.3418 10.582 46.3359 11.8477Z" fill="#5534DA"/>
</svg>
