<svg width="54" height="22" viewBox="0 0 54 22" fill="none" xmlns="http://www.w3.org/2000/svg">
<rect width="54" height="22" rx="4" fill="#F9EEE3"/>
<path d="M16.2188 13.8281V14.6133H6.67969V13.8281H16.2188ZM7.52344 7.34766V6.58594H15.3047V7.34766H13.6523V10.9922H15.2812V11.7422H7.54688V10.9922H9.17578V7.34766H7.52344ZM10.0898 10.9922H12.75V7.34766H10.0898V10.9922ZM26.5898 13.8867V14.6602H17.0508V13.8867H21.3398V11.918H18.2461V8.70703H24.4805V7.06641H18.2227V6.30469H25.3828V9.45703H19.1602V11.1562H25.6289V11.918H22.2422V13.8867H26.5898ZM34.2422 5.76562V11.8125H33.3516V8.98828H31.7578V8.22656H33.3516V5.76562H34.2422ZM27.4688 10.9219C28.8223 10.3535 29.6191 9.00586 29.6133 7.76953V7.14844H27.668V6.38672H32.3438V7.14844H30.5039V7.76953C30.5039 8.90039 31.2656 10.1367 32.5898 10.6875L32.1094 11.3906C31.1309 10.9805 30.4453 10.2012 30.082 9.30469C29.7188 10.3184 28.998 11.1914 27.9609 11.6484L27.4688 10.9219ZM29.25 13.1133V12.3633H36.2695V15.9492H35.3672V13.1133H29.25ZM35.3906 11.9062V5.53125H36.2695V11.9062H35.3906ZM46.2305 11.168V11.918H39.0234V6.43359H46.1133V7.20703H39.9609V8.75391H45.8906V9.49219H39.9609V11.168H46.2305ZM37.793 14.5898V13.8281H47.332V14.5898H37.793Z" fill="#D58D49"/>
</svg>
